<svg id="Layer_1" data-name="Layer 1" xmlns="http://www.w3.org/2000/svg" viewBox="0 0 500 500"><defs><style>.cls-1{stroke:#000;stroke-miterlimit:10;stroke-width:1.82px;}</style></defs><path class="cls-1" d="M46.18,357.09a14.21,14.21,0,0,1,5.83,1.2,16.66,16.66,0,0,1,4.76,3.2,13.82,13.82,0,0,1,3.2,4.77,15.35,15.35,0,0,1,1.14,5.9v47.77a14.55,14.55,0,0,1-3.34,9.39,14.73,14.73,0,0,1-8.46,5.26l-1.57.28a10.6,10.6,0,0,1-3.12.43H34.09a13.8,13.8,0,0,1-3.41-.43l-.43-.14a14.89,14.89,0,0,1-11.51-14.5v-4.55A21.56,21.56,0,0,1,31.82,395.9l13.65-5.83a15.62,15.62,0,0,0,6.47-5.54,14,14,0,0,0,2.49-8v-4.41a8.26,8.26,0,0,0-8.25-8.25H33.6a3.07,3.07,0,0,0-.93.14l-.71.15a8.21,8.21,0,0,0-4.62,3,8.08,8.08,0,0,0-1.78,5.12v3.41H18.74V372.3A14.68,14.68,0,0,1,22,362.92a14.4,14.4,0,0,1,8.39-5.27l.71-.14a14.21,14.21,0,0,1,3.41-.42Zm8.25,35.12a22.87,22.87,0,0,1-3,2.27,34.55,34.55,0,0,1-3.27,1.85l-13.79,5.83a16,16,0,0,0-6.33,5.47,13.9,13.9,0,0,0-2.49,8v4.55a7.81,7.81,0,0,0,1.78,5,8.31,8.31,0,0,0,4.48,2.91l.43.14a2.73,2.73,0,0,0,.92.14H45.54a2.73,2.73,0,0,0,.92-.14l1.43-.28a8.58,8.58,0,0,0,4.69-3,7.9,7.9,0,0,0,1.85-5.12Z"/><path class="cls-1" d="M102.06,357.51a14.15,14.15,0,0,1,3.41-.42h20v6.82h-21a2,2,0,0,0-.85.14l-.71.15a7.91,7.91,0,0,0-4.55,3,9.13,9.13,0,0,0-1.85,5.12v63H89.83l-.14-63A14.68,14.68,0,0,1,93,362.92a14.4,14.4,0,0,1,8.39-5.27Z"/><path class="cls-1" d="M160.78,357.51a14.27,14.27,0,0,1,3.41-.42h20.05v6.82h-21a2,2,0,0,0-.85.14l-.72.15a7.88,7.88,0,0,0-4.54,3,9.06,9.06,0,0,0-1.85,5.12v63h-6.69l-.14-63a14.68,14.68,0,0,1,3.27-9.38,14.43,14.43,0,0,1,8.39-5.27Z"/><path class="cls-1" d="M233.16,357.09a14.25,14.25,0,0,1,5.83,1.2,16.8,16.8,0,0,1,4.76,3.2,14,14,0,0,1,3.2,4.77,15.35,15.35,0,0,1,1.14,5.9v47.77a14.55,14.55,0,0,1-3.34,9.39,14.73,14.73,0,0,1-8.46,5.26l-1.57.28a10.67,10.67,0,0,1-3.13.43H221.07a13.74,13.74,0,0,1-3.41-.43l-.43-.14a14.91,14.91,0,0,1-11.52-14.5v-4.55A21.59,21.59,0,0,1,218.8,395.9l13.65-5.83a15.62,15.62,0,0,0,6.47-5.54,14,14,0,0,0,2.48-8v-4.41a8.25,8.25,0,0,0-8.24-8.25H220.57a3,3,0,0,0-.92.14l-.71.15a8.21,8.21,0,0,0-4.62,3,8.08,8.08,0,0,0-1.78,5.12v3.41h-6.83V372.3a14.63,14.63,0,0,1,3.28-9.38,14.37,14.37,0,0,1,8.38-5.27l.72-.14a14.15,14.15,0,0,1,3.41-.42Zm8.24,35.12a22.13,22.13,0,0,1-3,2.27,35.84,35.84,0,0,1-3.27,1.85l-13.79,5.83a16,16,0,0,0-6.33,5.47,13.9,13.9,0,0,0-2.49,8v4.55a7.81,7.81,0,0,0,1.78,5,8.27,8.27,0,0,0,4.48,2.91l.42.14a2.79,2.79,0,0,0,.93.14h12.37a2.73,2.73,0,0,0,.92-.14l1.42-.28a8.57,8.57,0,0,0,4.7-3,7.89,7.89,0,0,0,1.84-5.12Z"/><path class="cls-1" d="M312.35,357.09h6.83v91.56a14.74,14.74,0,0,1-1.21,5.91,15,15,0,0,1-3.27,4.76,16.59,16.59,0,0,1-4.76,3.2,14.25,14.25,0,0,1-5.83,1.21H292.59a13.68,13.68,0,0,1-3.41-.43l-.71-.14A14.27,14.27,0,0,1,280,458a14.79,14.79,0,0,1-3.2-9.46V445h6.82v3.55a8.12,8.12,0,0,0,6.26,8l.85.14a7.9,7.9,0,0,0,1.85.28h11.52a8.25,8.25,0,0,0,8.24-8.25V435.86a14.72,14.72,0,0,0-8.81-13.37l-13.79-5.83a20.62,20.62,0,0,1-9.46-8,21.37,21.37,0,0,1-3.48-11.8V357.09h6.82V396.9a14.53,14.53,0,0,0,8.82,13.36l13.79,6a24.28,24.28,0,0,1,6.11,4Z"/><path class="cls-1" d="M402.77,357.29h6.82V437h-6.82v-15a9.19,9.19,0,0,0-2.63-6.37,15.33,15.33,0,0,0-6.76-4.18l-12.94-4a20.88,20.88,0,0,1-9.95-6.05,13.88,13.88,0,0,1-3.7-9.46V357.29h6.83V392a9.54,9.54,0,0,0,2.56,6.44A13.87,13.87,0,0,0,383,402.6l12.94,4a21.14,21.14,0,0,1,6.83,3.3Z"/><path class="cls-1" d="M465.61,357.29a18.37,18.37,0,0,1,5.9.94,17.36,17.36,0,0,1,4.84,2.47,12,12,0,0,1,3.27,3.69,9.21,9.21,0,0,1,1.21,4.56V388.3a13.91,13.91,0,0,1-3.56,9.24,20.69,20.69,0,0,1-9.52,6.16l-13.94,4.62a14.76,14.76,0,0,0-6.54,4.23,9.44,9.44,0,0,0-2.42,6.32v12.87h33.42V437H438V418.87a13.9,13.9,0,0,1,3.55-9.23,20.73,20.73,0,0,1,9.53-6.16L465,398.86a13.81,13.81,0,0,0,6.54-4.18A9.58,9.58,0,0,0,474,388.3V369a5.51,5.51,0,0,0-2.49-4.51,9.51,9.51,0,0,0-5.9-1.87H454a10.9,10.9,0,0,0-1.85.22l-.85.11a8.75,8.75,0,0,0-4.62,2.31,5.42,5.42,0,0,0-1.78,4v14.62H438V369.17a10,10,0,0,1,3.27-7.37,15.58,15.58,0,0,1,8.53-4.07l.71-.11a18,18,0,0,1,3.41-.33Z"/><path d="M158.64,44.53h0A6.55,6.55,0,0,0,152.09,38H130.72a6.55,6.55,0,0,0-6.55,6.55V258.45a6.56,6.56,0,0,0,6.55,6.56h21.37a6.56,6.56,0,0,0,6.55-6.56h0a6.55,6.55,0,0,0-6.55-6.55h-8.26a6.56,6.56,0,0,1-6.55-6.56V57.64a6.55,6.55,0,0,1,6.55-6.55h8.26A6.56,6.56,0,0,0,158.64,44.53Z"/><path d="M360.62,44.53h0A6.55,6.55,0,0,1,367.17,38h21.37a6.56,6.56,0,0,1,6.56,6.55V258.45a6.56,6.56,0,0,1-6.56,6.56H367.17a6.56,6.56,0,0,1-6.55-6.56h0a6.55,6.55,0,0,1,6.55-6.55h8.26a6.56,6.56,0,0,0,6.56-6.56V57.64a6.56,6.56,0,0,0-6.56-6.55h-8.26A6.56,6.56,0,0,1,360.62,44.53Z"/><path d="M185.12,70.75h0a6.55,6.55,0,0,1-6.55-6.55V42.83a6.56,6.56,0,0,1,6.55-6.56h148.5a6.56,6.56,0,0,1,6.55,6.56V64.2a6.55,6.55,0,0,1-6.55,6.55h0a6.56,6.56,0,0,1-6.56-6.55V55.94a6.56,6.56,0,0,0-6.55-6.56H198.23a6.56,6.56,0,0,0-6.55,6.56V64.2A6.56,6.56,0,0,1,185.12,70.75Z"/><path d="M333.57,231.38h0a6.56,6.56,0,0,1,6.55,6.56v21.37a6.55,6.55,0,0,1-6.55,6.55H185.07a6.55,6.55,0,0,1-6.55-6.55V237.94a6.56,6.56,0,0,1,6.55-6.56h0a6.56,6.56,0,0,1,6.56,6.56v8.26a6.55,6.55,0,0,0,6.55,6.55H320.46A6.55,6.55,0,0,0,327,246.2v-8.26A6.56,6.56,0,0,1,333.57,231.38Z"/><path d="M231.23,97.27h9.21v107.6h-9.21V184.68a12.43,12.43,0,0,0-3.55-8.61,20.65,20.65,0,0,0-9.11-5.63l-17.47-5.35a28.16,28.16,0,0,1-13.43-8.16,18.72,18.72,0,0,1-5-12.76V97.27h9.21v46.9a12.87,12.87,0,0,0,3.45,8.68,18.7,18.7,0,0,0,9.22,5.56L222,163.76a28.76,28.76,0,0,1,9.21,4.45Z"/><path d="M316.05,97.27a24.77,24.77,0,0,1,8,1.26,23.08,23.08,0,0,1,6.53,3.34,15.92,15.92,0,0,1,4.41,5,12.32,12.32,0,0,1,1.63,6.16v26.12a18.8,18.8,0,0,1-4.79,12.46,27.94,27.94,0,0,1-12.86,8.32l-18.81,6.23a20,20,0,0,0-8.83,5.72,12.73,12.73,0,0,0-3.26,8.53v17.36h45.1v7.13H278.82V180.38a18.8,18.8,0,0,1,4.8-12.47,28,28,0,0,1,12.86-8.31l18.8-6.23a18.77,18.77,0,0,0,8.83-5.64,13,13,0,0,0,3.26-8.61V113a7.44,7.44,0,0,0-3.36-6.09,12.89,12.89,0,0,0-8-2.52H300.31a13.53,13.53,0,0,0-2.49.3l-1.15.14a11.87,11.87,0,0,0-6.24,3.12,7.35,7.35,0,0,0-2.4,5.34V133h-9.21V113.29a13.47,13.47,0,0,1,4.42-9.94,20.9,20.9,0,0,1,11.51-5.49l1-.15a24.71,24.71,0,0,1,4.6-.44Z"/></svg>