<svg id="Layer_1" data-name="Layer 1" xmlns="http://www.w3.org/2000/svg" viewBox="0 0 350 302.74"><defs><style>.cls-1{fill:#498ce9;}</style></defs><path class="cls-1" d="M53.13,23.72h0a7.91,7.91,0,0,0-7.91-7.91H19.44a7.91,7.91,0,0,0-7.91,7.91V281.87a7.91,7.91,0,0,0,7.91,7.91H45.22a7.91,7.91,0,0,0,7.91-7.91h0A7.91,7.91,0,0,0,45.22,274h-10a7.91,7.91,0,0,1-7.91-7.91V39.54a7.91,7.91,0,0,1,7.91-7.91h10A7.91,7.91,0,0,0,53.13,23.72Z"/><path class="cls-1" d="M296.87,23.72h0a7.91,7.91,0,0,1,7.91-7.91h25.78a7.91,7.91,0,0,1,7.91,7.91V281.87a7.91,7.91,0,0,1-7.91,7.91H304.78a7.91,7.91,0,0,1-7.91-7.91h0a7.91,7.91,0,0,1,7.91-7.91h10a7.91,7.91,0,0,0,7.91-7.91V39.54a7.91,7.91,0,0,0-7.91-7.91h-10A7.91,7.91,0,0,1,296.87,23.72Z"/><path class="cls-1" d="M85.09,55.36h0a7.91,7.91,0,0,1-7.91-7.91V21.66a7.91,7.91,0,0,1,7.91-7.91H264.28a7.91,7.91,0,0,1,7.91,7.91V47.45a7.91,7.91,0,0,1-7.91,7.91h0a7.91,7.91,0,0,1-7.91-7.91v-10a7.91,7.91,0,0,0-7.91-7.91H100.91A7.91,7.91,0,0,0,93,37.48v10A7.91,7.91,0,0,1,85.09,55.36Z"/><path class="cls-1" d="M264.22,249.21h0a7.91,7.91,0,0,1,7.91,7.91V282.9a7.91,7.91,0,0,1-7.91,7.91H85a7.91,7.91,0,0,1-7.91-7.91V257.12A7.91,7.91,0,0,1,85,249.21h0a7.91,7.91,0,0,1,7.91,7.91v10a7.91,7.91,0,0,0,7.91,7.91H248.4a7.91,7.91,0,0,0,7.91-7.91v-10A7.91,7.91,0,0,1,264.22,249.21Z"/><path class="cls-1" d="M140.73,87.36h11.11V217.21H140.73V192.85a15,15,0,0,0-4.29-10.39,24.94,24.94,0,0,0-11-6.8l-21.07-6.45a34.06,34.06,0,0,1-16.21-9.85,22.59,22.59,0,0,1-6-15.4V87.36H93.25V144a15.5,15.5,0,0,0,4.17,10.47,22.53,22.53,0,0,0,11.12,6.72l21.07,6.44A34.82,34.82,0,0,1,140.73,173Z"/><path class="cls-1" d="M243.08,87.36a30.11,30.11,0,0,1,9.62,1.52,27.92,27.92,0,0,1,7.87,4,19.4,19.4,0,0,1,5.33,6,14.93,14.93,0,0,1,2,7.43v31.52a22.69,22.69,0,0,1-5.79,15,33.76,33.76,0,0,1-15.51,10l-22.7,7.52a24,24,0,0,0-10.65,6.9,15.31,15.31,0,0,0-3.94,10.29v21h54.42v8.6H198.16V187.65a22.68,22.68,0,0,1,5.79-15,33.76,33.76,0,0,1,15.51-10l22.7-7.52a22.55,22.55,0,0,0,10.65-6.81,15.7,15.7,0,0,0,3.94-10.39V106.34c0-2.86-1.36-5.31-4.05-7.34a15.58,15.58,0,0,0-9.62-3h-19a16.57,16.57,0,0,0-3,.36l-1.39.18a14.23,14.23,0,0,0-7.52,3.76,8.87,8.87,0,0,0-2.9,6.45v23.82H198.16V106.7a16.28,16.28,0,0,1,5.32-12,25.25,25.25,0,0,1,13.9-6.62l1.16-.18a29,29,0,0,1,5.56-.54Z"/></svg>